<?xml version="1.0" encoding="utf-8"?>
<!-- Generator: Adobe Illustrator 25.4.1, SVG Export Plug-In . SVG Version: 6.00 Build 0)  -->
<svg version="1.1" id="Layer_1" xmlns="http://www.w3.org/2000/svg" xmlns:xlink="http://www.w3.org/1999/xlink" x="0px" y="0px"
	 viewBox="0 0 510.8 62.7" style="enable-background:new 0 0 510.8 62.7;" xml:space="preserve">
<style type="text/css">
	.st0{fill:#083440;}
	.st1{fill:#F0165B;}
</style>
<g id="Layer_2_00000044875807420757870730000001546558204064155012_">
	<g id="Layer_1-2">
		<path class="st0" d="M9.4,42L0,21.6h8.8l2.3,6.5c0.8,2.4,1.5,4.5,2.4,7h0.2c0.8-2.5,1.6-4.6,2.4-7l2.3-6.5h8.6L17.7,42v10.8H9.4
			V42z"/>
		<path class="st0" d="M25.2,40.8c0-8,5.8-12.6,11.9-12.6s11.9,4.6,11.9,12.6s-5.8,12.6-11.9,12.6S25.2,48.8,25.2,40.8z M40.6,40.8
			c0-3.7-1-6-3.5-6s-3.5,2.3-3.5,6s1,6,3.5,6S40.6,44.4,40.6,40.8z"/>
		<path class="st0" d="M53.2,43.6V28.8h8.3v13.7c0,3.1,0.8,3.8,2.4,3.8c1.6,0,2.4-0.6,3.5-2.1V28.8h8.2v24h-6.7l-0.6-3.2h-0.2
			c-1.7,2.4-4.5,3.8-7.4,3.8C55.4,53.4,53.2,49.5,53.2,43.6z"/>
		<path class="st0" d="M91.4,21.6h8.3v31.2h-8.3V21.6z"/>
		<path class="st0" d="M105.9,28.8h6.7l0.6,2.9h0.2c1.9-1.9,3.9-3.5,7.2-3.5c2.8-0.2,5.4,1.3,6.6,3.8c2-2,4.1-3.8,7.4-3.8
			c5.3,0,7.6,3.8,7.6,9.8v14.8h-8.3V39c0-3.1-0.8-3.8-2.4-3.8c-1.3,0.1-2.5,0.8-3.4,1.8v15.8h-8.3V39c0-3.1-0.8-3.8-2.4-3.8
			c-1.3,0.1-2.5,0.8-3.4,1.8v15.8h-8.2V28.8z"/>
		<path class="st0" d="M146.6,46c0-5,3.8-7.8,13.1-8.7c-0.2-1.7-1.2-2.5-3.4-2.5c-1.7,0-3.6,0.7-6,2l-2.9-5.4
			c3.2-2,6.8-3.1,10.6-3.2c6.2,0,10,3.4,10,11.2v13.3h-6.7l-0.6-2.3h-0.2c-1.8,1.8-4.1,2.8-6.6,2.9c-3.9,0.1-7.2-2.9-7.3-6.8
			C146.6,46.3,146.6,46.2,146.6,46z M159.6,45.4v-3.3c-3.9,0.6-5.2,1.8-5.2,3.2c0,1.1,0.8,1.7,2.2,1.7C157.9,47,159,46.4,159.6,45.4
			L159.6,45.4z"/>
		<path class="st0" d="M171.9,56.7c0-2,1.1-3.5,3.4-4.6v-0.2c-1.4-0.9-2.3-2.5-2.2-4.1c0.1-1.8,1.1-3.5,2.7-4.5v-0.2
			c-2-1.4-3.3-3.7-3.3-6.1c0-6,5-8.7,10.3-8.7c1.3,0,2.6,0.2,3.8,0.6h8.9v6h-3.4c0.2,0.8,0.4,1.7,0.4,2.5c0,5.7-4.3,8-9.7,8
			c-0.9,0-1.8-0.1-2.7-0.3c-0.4,0.3-0.6,0.9-0.6,1.4c0,1.1,1,1.4,3.4,1.4h3.6c6,0,9.5,1.8,9.5,6.2c0,5.2-5.4,8.7-13.9,8.7
			C176.5,62.7,171.9,61,171.9,56.7z M188.1,55.4c0-1.2-1.1-1.4-3.2-1.4H183c-1.2,0.1-2.3,0-3.5-0.3c-0.5,0.4-0.8,1-0.9,1.7
			c0,1.5,1.9,2.2,4.7,2.2S188.1,56.7,188.1,55.4z M185.4,36.9c0-2.2-1.1-3.3-2.6-3.3s-2.6,1-2.6,3.3s1.1,3.4,2.6,3.4
			S185.4,39.2,185.4,36.9z"/>
		<path class="st0" d="M199.5,28.8h8.2v24h-8.2V28.8z"/>
		<path class="st0" d="M213.3,28.8h6.7l0.6,2.9h0.2c2-2.1,4.7-3.4,7.6-3.5c5.3,0,7.5,3.8,7.5,9.8v14.8h-8.2V39
			c0-3.1-0.8-3.8-2.4-3.8s-2.4,0.7-3.6,1.8v15.7h-8.3L213.3,28.8z"/>
		<path class="st0" d="M240,40.8c0-7.8,5.7-12.6,11.5-12.6c7.1,0,10.5,5.2,10.5,11.6c0,1.2-0.1,2.3-0.3,3.5H248
			c0.8,2.9,2.9,3.8,5.6,3.8c1.7,0,3.4-0.5,4.9-1.4l2.7,4.9c-2.6,1.8-5.6,2.7-8.7,2.8C245.4,53.4,240,48.8,240,40.8z M255,37.9
			c0-1.8-0.8-3.5-3.3-3.5c-1.8,0-3.4,1.1-3.8,3.5H255z"/>
		<path class="st0" d="M266.6,48.4c0.1-2.6,2.3-4.7,5-4.6c2.6,0.1,4.7,2.3,4.6,5c-0.1,2.6-2.2,4.6-4.8,4.6c-2.7,0-4.8-2.1-4.8-4.8
			C266.6,48.5,266.6,48.4,266.6,48.4z"/>
		<path class="st0" d="M289.1,21.6h8.5l1.7,13.6c0.3,3.3,0.7,6.5,1,9.8h0.2c0.6-3.3,1.2-6.6,1.7-9.8l3-13.6h6.9l3,13.6
			c0.6,3.1,1.1,6.5,1.7,9.8h0.2c0.3-3.3,0.7-6.6,1-9.8l1.7-13.6h7.9l-5.2,31.2h-10.5l-2.4-12.4c-0.5-2.4-0.9-5-1.1-7.3h-0.2
			c-0.3,2.3-0.7,4.9-1.1,7.3l-2.3,12.4h-10.3L289.1,21.6z"/>
		<path class="st0" d="M329.8,40.8c0-7.8,5.7-12.6,11.5-12.6c7.1,0,10.5,5.2,10.5,11.6c0,1.2-0.1,2.3-0.3,3.5h-13.7
			c0.8,2.9,2.9,3.8,5.6,3.8c1.7,0,3.4-0.5,4.9-1.4l2.7,4.9c-2.6,1.8-5.6,2.7-8.7,2.8C335.1,53.4,329.8,48.8,329.8,40.8z M344.8,37.9
			c0-1.8-0.8-3.5-3.3-3.5c-1.8,0-3.4,1.1-3.8,3.5H344.8z"/>
		<path class="st0" d="M364.6,40.8c0-8,6-12.6,12.9-12.6c2.6,0,5,0.8,7,2.5l-3.8,5.3c-0.7-0.7-1.6-1.1-2.6-1.2c-3.1,0-4.9,2.3-4.9,6
			s2,6,4.6,6c1.4-0.1,2.8-0.6,3.8-1.5l3.2,5.4c-2.2,1.9-5.1,2.9-8,2.8C369.9,53.4,364.6,48.8,364.6,40.8z"/>
		<path class="st0" d="M388.5,28.8h6.7l0.6,4.1h0.2c1.8-3.3,4.5-4.7,6.8-4.7c1-0.1,2,0.1,3,0.5l-1.4,7.1c-0.9-0.2-1.8-0.4-2.7-0.4
			c-1.7,0-3.8,1.1-5,4v13.4h-8.2L388.5,28.8z"/>
		<path class="st0" d="M406.8,40.8c0-7.8,5.7-12.6,11.5-12.6c7.1,0,10.5,5.2,10.5,11.6c0,1.2-0.1,2.3-0.3,3.5h-13.7
			c0.8,2.9,2.9,3.8,5.6,3.8c1.7,0,3.4-0.5,4.9-1.4l2.7,4.9c-2.6,1.8-5.6,2.7-8.7,2.8C412.2,53.4,406.8,48.8,406.8,40.8z M421.8,37.9
			c0-1.8-0.8-3.5-3.3-3.5c-1.8,0-3.4,1.1-3.8,3.5H421.8z"/>
		<path class="st0" d="M431.9,46c0-5,3.8-7.8,13-8.7c-0.2-1.7-1.2-2.5-3.4-2.5c-1.7,0-3.5,0.7-6,2l-2.9-5.4c3.2-2,6.8-3.1,10.6-3.2
			c6.2,0,10,3.4,10,11.2v13.3h-6.7l-0.6-2.3h-0.2c-1.8,1.8-4.1,2.8-6.6,2.9c-3.9,0.1-7.1-3-7.3-6.9C431.9,46.3,431.9,46.2,431.9,46z
			 M445,45.4v-3.3c-3.9,0.6-5.2,1.8-5.2,3.2c0,1.1,0.8,1.7,2.2,1.7C443.2,47,444.3,46.4,445,45.4z"/>
		<path class="st0" d="M458.7,43.6v-8.4h-3.2v-6.1l3.6-0.3l1-6.2h6.8v6.2h5.5v6.4H467v8.2c0,2.6,1.3,3.5,2.9,3.5
			c0.7,0,1.4-0.1,2.1-0.4l1.2,6c-1.8,0.6-3.7,0.9-5.7,0.9C461.3,53.4,458.7,49.4,458.7,43.6z"/>
		<path class="st0" d="M474.6,40.8c0-7.8,5.7-12.6,11.5-12.6c7.1,0,10.5,5.2,10.5,11.6c0,1.2-0.1,2.3-0.3,3.5h-13.7
			c0.8,2.9,2.9,3.8,5.6,3.8c1.7,0,3.4-0.5,4.9-1.4l2.7,4.9c-2.6,1.8-5.6,2.7-8.7,2.8C480,53.4,474.6,48.8,474.6,40.8z M489.6,37.9
			c0-1.8-0.8-3.5-3.3-3.5c-1.8,0-3.4,1.1-3.8,3.5H489.6z"/>
		<path class="st0" d="M501.2,48.4c0.1-2.6,2.3-4.7,5-4.6c2.6,0.1,4.7,2.3,4.6,5c-0.1,2.6-2.2,4.6-4.8,4.6c-2.7,0-4.8-2.1-4.8-4.8
			C501.2,48.5,501.2,48.4,501.2,48.4z"/>
		<path class="st1" d="M203.9,0c-0.2,0-0.4,0.2-0.4,0.4v3.2c0,0.2,0.1,0.4,0.3,0.5c0.2,0,0.4-0.1,0.5-0.3c0,0,0-0.1,0-0.1V0.4
			C204.3,0.2,204.1,0,203.9,0C203.9,0,203.9,0,203.9,0z"/>
		<path class="st1" d="M195.8,3.8c-0.1-0.2-0.4-0.2-0.5,0c0,0,0,0,0,0c-0.2,0.2-0.2,0.4,0,0.6l2,2.2c0.1,0.1,0.2,0.1,0.3,0.1
			c0.1,0,0.2,0,0.3-0.1c0.2-0.2,0.2-0.4,0-0.6L195.8,3.8z"/>
		<path class="st1" d="M195.2,13.4c0-0.2-0.2-0.4-0.4-0.4H192c-0.2,0-0.4,0.2-0.4,0.4c0,0.2,0.2,0.4,0.4,0.4h2.9
			C195.1,13.8,195.2,13.6,195.2,13.4z"/>
		<path class="st1" d="M197,20.1l-2,2.2c-0.2,0.2-0.2,0.4,0,0.6c0.1,0.1,0.2,0.1,0.3,0.1c0.1,0,0.2,0,0.3-0.1l2-2.2
			c0.2-0.2,0.2-0.4,0-0.6C197.4,20,197.2,19.9,197,20.1C197,20.1,197,20.1,197,20.1z"/>
		<path class="st1" d="M210.2,20.4c-0.1-0.2-0.4-0.2-0.5,0c0,0,0,0,0,0c-0.2,0.2-0.2,0.4,0,0.6l2,2.2c0.1,0.1,0.2,0.1,0.3,0.1
			c0.1,0,0.2-0.1,0.3-0.1c0.2-0.2,0.2-0.4,0-0.6L210.2,20.4z"/>
		<path class="st1" d="M215.5,13.3h-2.9c-0.2,0-0.4,0.2-0.4,0.4c0,0,0,0,0,0c0,0.2,0.2,0.4,0.4,0.4c0,0,0,0,0,0h2.9
			c0.2,0,0.4-0.2,0.4-0.4C215.9,13.5,215.7,13.3,215.5,13.3z"/>
		<path class="st1" d="M210.2,7.1c0.1,0,0.2,0,0.3-0.1l2-2.2c0.2-0.2,0.2-0.4,0-0.6c-0.1-0.2-0.4-0.2-0.5,0c0,0,0,0,0,0l-2,2.2
			c-0.2,0.2-0.2,0.4,0,0.6C209.9,7.1,210.1,7.1,210.2,7.1z"/>
		<path class="st1" d="M206.1,22.9h-4.4c-0.3,0-0.5,0.3-0.5,0.6v1.2c0,0.3,0.2,0.6,0.5,0.6c0,0,0,0,0,0h0.3v0.6c0,0.6,0.4,1,0.9,1.1
			c0,0,0.1,0,0.1,0h1.5c0.6,0,1-0.4,1-1c0,0,0-0.1,0-0.1v-0.6h0.6c0.3,0,0.5-0.3,0.5-0.6c0,0,0,0,0,0v-1.2
			C206.6,23.2,206.4,23,206.1,22.9C206.1,22.9,206.1,22.9,206.1,22.9z"/>
		<path class="st1" d="M203.9,6.3c-3.5,0.2-6.2,3.1-6.1,6.6c0,1.6,0.5,3.2,1.6,4.4c0.5,0.6,0.9,1.3,1.1,2.1l0.7,2
			c0.1,0.2,0.3,0.4,0.5,0.4h4.4c0.2,0,0.4-0.2,0.5-0.4l0.6-1.8c0.3-0.8,0.7-1.6,1.2-2.2c1-1.3,1.6-2.8,1.6-4.5
			C210.1,9.4,207.4,6.4,203.9,6.3z M203.9,9.2c-0.6,0-1.2,0.2-1.7,0.5c-1.2,0.8-1.9,2.2-1.8,3.7c0,0.2-0.1,0.3-0.3,0.3l0,0
			c-0.2,0-0.3-0.2-0.3-0.4c0-1.7,0.8-3.3,2.2-4.2c0.6-0.4,1.3-0.6,1.9-0.6c0.2,0,0.3,0.2,0.3,0.3c0,0,0,0,0,0
			C204.3,9,204.1,9.1,203.9,9.2C203.9,9.2,203.9,9.2,203.9,9.2L203.9,9.2z"/>
	</g>
</g>
</svg>
