<svg xmlns="http://www.w3.org/2000/svg" viewBox="0 0 276.19 104.66"><defs><style>.cls-1{fill:#083440;}.cls-2{fill:#f0165b;}</style></defs><g id="Layer_2" data-name="Layer 2"><g id="Layer_1-2" data-name="Layer 1"><path class="cls-1" d="M9.41,38.33,0,17.88H8.83l2.31,6.52c.77,2.36,1.53,4.52,2.35,7h.19c.82-2.45,1.63-4.61,2.45-7l2.3-6.52h8.65L17.67,38.33V49.08H9.41Z"/><path class="cls-1" d="M25.25,37.08c0-8,5.76-12.58,11.9-12.58s11.91,4.61,11.91,12.58S43.3,49.66,37.15,49.66,25.25,45.05,25.25,37.08Zm15.36,0c0-3.65-1-5.95-3.46-5.95s-3.45,2.3-3.45,5.95,1,6,3.45,6S40.61,40.73,40.61,37.08Z"/><path class="cls-1" d="M53.18,39.86V25.08h8.26V38.81c0,3.07.77,3.84,2.4,3.84s2.4-.58,3.46-2.12V25.08h8.25v24H68.83l-.57-3.17h-.19a9.12,9.12,0,0,1-7.4,3.75C55.39,49.66,53.18,45.82,53.18,39.86Z"/><path class="cls-1" d="M91.39,17.88h8.26v31.2H91.39Z"/><path class="cls-1" d="M105.89,25.08h6.72l.57,2.93h.2c1.92-1.88,3.93-3.51,7.2-3.51a6.8,6.8,0,0,1,6.62,3.84c2-2,4.13-3.84,7.39-3.84,5.28,0,7.59,3.84,7.59,9.79V49.08h-8.26V35.35c0-3.07-.77-3.84-2.4-3.84a5.16,5.16,0,0,0-3.36,1.82V49.08H119.9V35.35c0-3.07-.76-3.84-2.4-3.84a5.16,5.16,0,0,0-3.36,1.82V49.08h-8.25Z"/><path class="cls-1" d="M146.59,42.26c0-5,3.84-7.77,13.06-8.73-.19-1.73-1.25-2.5-3.36-2.5-1.73,0-3.55.67-6,2l-2.88-5.38a20.2,20.2,0,0,1,10.56-3.17c6.24,0,10,3.36,10,11.23V49.08h-6.72l-.57-2.3h-.19a9.79,9.79,0,0,1-6.63,2.88A7.06,7.06,0,0,1,146.59,42.26Zm13.06-.57V38.42c-3.94.58-5.19,1.83-5.19,3.17,0,1.1.77,1.73,2.21,1.73A3.79,3.79,0,0,0,159.65,41.69Z"/><path class="cls-1" d="M171.94,53c0-2,1.15-3.46,3.36-4.61v-.2a4.72,4.72,0,0,1-2.21-4.12,5.86,5.86,0,0,1,2.69-4.52v-.19a7.44,7.44,0,0,1-3.27-6.14c0-6,5-8.74,10.27-8.74a12.17,12.17,0,0,1,3.84.58h8.93v6H192.1a8.66,8.66,0,0,1,.38,2.5c0,5.66-4.32,8-9.7,8a11.93,11.93,0,0,1-2.68-.33,1.51,1.51,0,0,0-.58,1.39c0,1.06,1,1.44,3.36,1.44h3.6c6,0,9.46,1.83,9.46,6.24,0,5.19-5.38,8.74-13.92,8.74C176.54,59,171.94,57.34,171.94,53Zm16.12-1.35c0-1.25-1.15-1.44-3.21-1.44H183a12.36,12.36,0,0,1-3.46-.29,2.32,2.32,0,0,0-.86,1.73c0,1.54,1.92,2.21,4.7,2.21S188.06,53,188.06,51.67Zm-2.68-18.43c0-2.21-1.06-3.27-2.6-3.27s-2.59,1.06-2.59,3.27,1.06,3.36,2.59,3.36S185.38,35.54,185.38,33.24Z"/><path class="cls-1" d="M199.49,25.08h8.25v24h-8.25Z"/><path class="cls-1" d="M213.31,25.08H220l.58,2.88h.19a10.82,10.82,0,0,1,7.58-3.46c5.28,0,7.49,3.84,7.49,9.79V49.08h-8.25V35.35c0-3.07-.77-3.84-2.4-3.84s-2.4.67-3.65,1.82V49.08h-8.26Z"/><path class="cls-1" d="M240,37.08c0-7.78,5.66-12.58,11.52-12.58,7.1,0,10.46,5.19,10.46,11.62a17.45,17.45,0,0,1-.33,3.45H248c.76,2.88,2.88,3.84,5.56,3.84a9.85,9.85,0,0,0,4.9-1.44l2.69,4.9a16.13,16.13,0,0,1-8.74,2.79C245.37,49.66,240,45.05,240,37.08Zm15-2.88c0-1.83-.76-3.46-3.26-3.46-1.82,0-3.36,1.06-3.84,3.46Z"/><path class="cls-1" d="M266.59,44.66a4.8,4.8,0,1,1,4.8,5A4.8,4.8,0,0,1,266.59,44.66Z"/><path class="cls-1" d="M.15,72.88H8.6l1.73,13.63c.33,3.26.71,6.53,1.05,9.79h.19c.58-3.26,1.16-6.57,1.73-9.79l3-13.63h6.91l3,13.63c.57,3.12,1.15,6.48,1.72,9.79h.2c.33-3.31.72-6.62,1.05-9.79l1.73-13.63h7.87l-5.18,31.2H23.09l-2.4-12.39c-.48-2.4-.86-5-1.15-7.29h-.19c-.34,2.3-.67,4.89-1.15,7.29l-2.31,12.39H5.62Z"/><path class="cls-1" d="M40.76,92.08c0-7.78,5.66-12.58,11.52-12.58,7.1,0,10.46,5.19,10.46,11.62a17.45,17.45,0,0,1-.33,3.45H48.72c.77,2.88,2.88,3.84,5.57,3.84A9.88,9.88,0,0,0,59.19,97l2.69,4.9a16.13,16.13,0,0,1-8.74,2.79C46.13,104.66,40.76,100.05,40.76,92.08Zm15-2.88c0-1.83-.77-3.46-3.26-3.46-1.83,0-3.36,1.06-3.84,3.46Z"/><path class="cls-1" d="M75.6,92.08c0-8,6.05-12.58,12.87-12.58a10.56,10.56,0,0,1,7,2.5l-3.84,5.28A4,4,0,0,0,89,86.13c-3.08,0-4.9,2.3-4.9,6s2,6,4.61,6a6.66,6.66,0,0,0,3.84-1.54l3.17,5.38a12.09,12.09,0,0,1-8,2.79C80.88,104.66,75.6,100.05,75.6,92.08Z"/><path class="cls-1" d="M99.51,80.08h6.72l.57,4.13H107c1.78-3.27,4.47-4.71,6.82-4.71a7.11,7.11,0,0,1,3,.48l-1.35,7.11a10.89,10.89,0,0,0-2.69-.39c-1.72,0-3.83,1.06-5,4v13.35H99.51Z"/><path class="cls-1" d="M117.84,92.08c0-7.78,5.67-12.58,11.52-12.58,7.11,0,10.47,5.19,10.47,11.62a16.54,16.54,0,0,1-.34,3.45H125.81c.77,2.88,2.88,3.84,5.57,3.84a9.88,9.88,0,0,0,4.9-1.44l2.68,4.9a16.1,16.1,0,0,1-8.73,2.79C123.22,104.66,117.84,100.05,117.84,92.08Zm15-2.88c0-1.83-.77-3.46-3.27-3.46-1.82,0-3.36,1.06-3.84,3.46Z"/><path class="cls-1" d="M142.9,97.26c0-5,3.84-7.77,13-8.73-.19-1.73-1.24-2.5-3.36-2.5-1.72,0-3.55.67-6,2l-2.88-5.38a20.18,20.18,0,0,1,10.56-3.17c6.24,0,10,3.36,10,11.23v13.35h-6.72l-.57-2.3h-.2a9.76,9.76,0,0,1-6.62,2.88A7.06,7.06,0,0,1,142.9,97.26Zm13-.57V93.42c-3.93.58-5.18,1.83-5.18,3.17,0,1.1.77,1.73,2.21,1.73A3.77,3.77,0,0,0,156,96.69Z"/><path class="cls-1" d="M169.68,94.86V86.51h-3.17V80.37l3.65-.29,1-6.24h6.82v6.24h5.47v6.43h-5.47v8.21c0,2.64,1.34,3.5,2.88,3.5a6.91,6.91,0,0,0,2.11-.38l1.25,6a17.92,17.92,0,0,1-5.67.87C172.27,104.66,169.68,100.72,169.68,94.86Z"/><path class="cls-1" d="M185.62,92.08c0-7.78,5.66-12.58,11.52-12.58,7.1,0,10.46,5.19,10.46,11.62a17.45,17.45,0,0,1-.33,3.45H193.59c.76,2.88,2.88,3.84,5.57,3.84A9.84,9.84,0,0,0,204.05,97l2.69,4.9a16.13,16.13,0,0,1-8.74,2.79C191,104.66,185.62,100.05,185.62,92.08Zm15-2.88c0-1.83-.77-3.46-3.27-3.46-1.82,0-3.36,1.06-3.84,3.46Z"/><path class="cls-1" d="M212.21,99.66a4.8,4.8,0,1,1,4.8,5A4.8,4.8,0,0,1,212.21,99.66Z"/><path class="cls-2" d="M195.81.13a.37.37,0,0,0-.56,0,.46.46,0,0,0,0,.62l2,2.25a.41.41,0,0,0,.28.13.39.39,0,0,0,.28-.13.48.48,0,0,0,0-.62Z"/><path class="cls-2" d="M195.21,9.65a.42.42,0,0,0-.39-.44H192a.44.44,0,0,0,0,.88h2.86A.42.42,0,0,0,195.21,9.65Z"/><path class="cls-2" d="M197,16.41l-2,2.25a.48.48,0,0,0,0,.62.41.41,0,0,0,.28.13.37.37,0,0,0,.28-.13l2-2.25a.48.48,0,0,0,0-.62A.37.37,0,0,0,197,16.41Z"/><path class="cls-2" d="M210.19,16.68a.37.37,0,0,0-.56,0,.48.48,0,0,0,0,.62l2,2.25a.37.37,0,0,0,.28.13.41.41,0,0,0,.28-.13.48.48,0,0,0,0-.62Z"/><path class="cls-2" d="M215.51,9.59h-2.86a.44.44,0,0,0,0,.88h2.86a.44.44,0,0,0,0-.88Z"/><path class="cls-2" d="M210.16,3.4a.41.41,0,0,0,.28-.13l2-2.25a.48.48,0,0,0,0-.62.37.37,0,0,0-.56,0l-2,2.25a.46.46,0,0,0,0,.62A.37.37,0,0,0,210.16,3.4Z"/><path class="cls-2" d="M206.05,19.24h-4.36a.54.54,0,0,0-.51.56V21a.55.55,0,0,0,.51.57H202v.61a1,1,0,0,0,1,1.09h1.52a1,1,0,0,0,1-1.09V21.6h.55a.55.55,0,0,0,.51-.57V19.8A.54.54,0,0,0,206.05,19.24Z"/><path class="cls-2" d="M203.9,2.58a6.38,6.38,0,0,0-6.09,6.63,7,7,0,0,0,1.55,4.41,6.66,6.66,0,0,1,1.15,2.11l.67,2a.52.52,0,0,0,.49.38h4.42a.52.52,0,0,0,.49-.38l.61-1.85a6.46,6.46,0,0,1,1.21-2.2A7,7,0,0,0,210,9.21,6.38,6.38,0,0,0,203.9,2.58Zm0,2.88a3.52,3.52,0,0,0-1.69.54,4.28,4.28,0,0,0-1.84,3.66.31.31,0,0,1-.3.3h0a.32.32,0,0,1-.27-.35A4.88,4.88,0,0,1,202,5.41a4,4,0,0,1,1.95-.6.3.3,0,0,1,.29.32A.31.31,0,0,1,203.92,5.46Z"/></g></g></svg>