<svg xmlns="http://www.w3.org/2000/svg" viewBox="0 0 210.86 368.64"><g id="Layer_2" data-name="Layer 2"><g id="Layer_1-2" data-name="Layer 1"><path d="M42.7,0H168.16a42.81,42.81,0,0,1,42.7,42.7V325.94a42.81,42.81,0,0,1-42.7,42.7H42.7A42.81,42.81,0,0,1,0,325.94V42.7A42.81,42.81,0,0,1,42.7,0ZM168.16,11.52H42.7A31.27,31.27,0,0,0,11.52,42.7V325.94A31.27,31.27,0,0,0,42.7,357.12H168.16a31.27,31.27,0,0,0,31.18-31.18V42.7a31.27,31.27,0,0,0-31.18-31.18Z" fill="#083540" fill-rule="evenodd"/><path d="M5.76,58.78a5.76,5.76,0,0,0,0,11.52H205.1a5.76,5.76,0,1,0,0-11.52Z" fill="#083540" fill-rule="evenodd"/><path d="M88.52,24.61a5.76,5.76,0,1,0,0,11.52h33.82a5.76,5.76,0,0,0,0-11.52Z" fill="#083540" fill-rule="evenodd"/><path d="M105.43,310.42a17.09,17.09,0,1,1-12.07,5,17,17,0,0,1,12.07-5Zm3.93,13.15a5.56,5.56,0,0,0-9.49,3.93,5.56,5.56,0,1,0,9.49-3.93Z" fill="#083540" fill-rule="evenodd"/><path d="M5.76,286.26a5.76,5.76,0,1,0,0,11.52H205.1a5.76,5.76,0,1,0,0-11.52Z" fill="#083540" fill-rule="evenodd"/><path d="M11.52,58.78H199.34V42.7a31.27,31.27,0,0,0-31.18-31.18H42.7A31.27,31.27,0,0,0,11.52,42.7V58.78ZM82.76,30.37a5.76,5.76,0,0,1,5.76-5.76h33.82a5.76,5.76,0,0,1,0,11.52H88.52A5.76,5.76,0,0,1,82.76,30.37Z" fill="#f2357b" fill-rule="evenodd"/><path d="M199.34,297.78H11.52v28.16A31.27,31.27,0,0,0,42.7,357.12H168.16a31.27,31.27,0,0,0,31.18-31.18V297.78Zm-93.91,12.64a17.09,17.09,0,1,1-12.07,5A17,17,0,0,1,105.43,310.42Z" fill="#f2357b" fill-rule="evenodd"/><path d="M109.36,323.57a5.56,5.56,0,0,0-9.49,3.93,5.56,5.56,0,1,0,9.49-3.93Z" fill="#e0e0e0" fill-rule="evenodd"/></g></g></svg>