<svg xmlns="http://www.w3.org/2000/svg" viewBox="0 0 2550.2 1614.51"><g id="Layer_2" data-name="Layer 2"><g id="Layer_1-2" data-name="Layer 1"><path d="M959.64,935.15c-1.74,0-3.49,0-5.23.07C952.83,936,957.9,935.16,959.64,935.15Z" fill="none"/><path d="M2124.93,212.22C1973.37,111.51,1786.91,50,1599.52,23,1465.67,3.81,1323.14-5.6,1188,3.49,1105.74,9,946.56,35.37,874.27,73.58c49,2.65,88.63,33.28,119,70.05,48.79,59.12,153.23,125.8,153.23,125.8a757.65,757.65,0,0,0-74.21-39.89C785.13,95.73,563.09,231,465.36,312.33c-35.37,29.43-54.46,51.8-54.46,51.8,15.45-15.3,34-23.46,54.2-26.34,112.15-16,219,147.35,219,147.35C597.4,495.22,551.9,501.34,463,542.81c-43.28,20.19-82.85,44.82-114.8,74.69a210.72,210.72,0,0,1-35.75,26.88c-37.13,22.25-79.86,33-123.44,37.26C156.31,684.82,17.23,695.72,0,666c8.59,27.18,16,46,27.54,68C84.69,842.5,191,943.3,297.64,1000.65c3.76,2,7.49,4,11.2,5.85,52.06,26.48,99.35,39.77,149.09,43.29,33.71,2.39,68.54.31,106.76-5.21,90.33-13,106-32.33,185.16-24.85,51.15,4.83,78.51,25.1,108.25,71.21-82-50.91-180.44,5.36-211.18,21.18,42.52,5.31,66,27.49,151.17,103.11,95.16,84.43,169.09,192.22,263.29,276.6,13.44,12,27.31,23.56,41.76,34.43,106.36,80,242.84,91.33,371.46,87.65q38.18-1.1,77-3.43C1230,1564.25,983.4,1298.12,983.4,976.73c0-353.94,299.09-640.86,668-640.86s668,286.92,668,640.86c0,220.36-115.94,414.74-292.49,530.08,102.64-45.89,195.78-110.16,270.78-199.53,50.48-60.16,92.09-136.13,119.05-209.88,30.42-83.23,47.8-181.18,47.8-270C2464.62,546.9,2325.25,345.34,2124.93,212.22Zm-1170.52,723c1.74,0,3.49-.06,5.23-.07C957.9,935.16,952.83,936,954.41,935.22Z" fill="#f2357b"/><path d="M615.85,160.37c17.55-5.57,35.29-17.29,52.15-23.56,35-13,71.67-18.8,106-9.17-24.42-23.47-59.67-41.61-94.8-36.76-43.76,6.05-85.95,36.55-129.77,41.79,11.54,7.33,20.84,22.46,32.92,27.65C593.21,165,604.49,164,615.85,160.37Z" fill="#f2357b"/><path d="M165.77,517.09c61.1-35.93,133.37-53.37,204-53.73,25.13-.13,44.23,3.49,74.2,8.59-28,7.84-55.75,16.94-82.89,27.29-31.89,12.17-61.82,26.15-91,43.92-32.89,20.06-66.1,37.67-105.22,40.35-28,1.91-78.49,4.47-96.66-23,28.23-7.83,63.5-21.47,87.55-37.18Q160.72,520.06,165.77,517.09Z" fill="#f2357b"/><path d="M2550.2,565.76l-841.75,506.75a154.49,154.49,0,1,0,97.15,143.88c0-3.24-.1-6.45-.29-9.64ZM1648.34,1283.7a63.42,63.42,0,1,1,63.42-63.42A63.42,63.42,0,0,1,1648.34,1283.7Z" fill="#083540"/></g></g></svg>