<?xml version="1.0" standalone="no"?>
<!DOCTYPE svg PUBLIC "-//W3C//DTD SVG 20010904//EN"
 "http://www.w3.org/TR/2001/REC-SVG-20010904/DTD/svg10.dtd">
<svg version="1.0" xmlns="http://www.w3.org/2000/svg"
 width="327.000000pt" height="327.000000pt" viewBox="0 0 327.000000 327.000000"
 preserveAspectRatio="xMidYMid meet">
<metadata>
Created by potrace 1.14, written by Peter Selinger 2001-2017
</metadata>
<g transform="translate(0.000000,327.000000) scale(0.100000,-0.100000)"
fill="#000000" stroke="none">
<path d="M1386 3245 c-351 -57 -651 -210 -901 -460 -230 -230 -376 -499 -447
-825 -20 -92 -23 -132 -22 -325 0 -243 12 -329 75 -517 192 -577 704 -1004
1311 -1094 154 -23 410 -15 557 16 397 84 741 303 982 625 140 188 243 420
291 658 20 95 23 143 23 317 0 176 -3 220 -23 314 -139 651 -623 1137 -1269
1277 -130 28 -445 35 -577 14z m492 -231 c195 -34 401 -121 572 -242 105 -75
263 -236 337 -343 246 -357 312 -815 177 -1226 -71 -220 -196 -416 -366 -579
-269 -256 -600 -388 -973 -386 -381 1 -723 148 -994 427 -200 206 -326 453
-378 738 -22 122 -21 342 0 465 113 626 609 1090 1243 1162 97 11 270 4 382
-16z"/>
<path d="M822 1930 c-13 -12 -14 -53 -9 -288 4 -150 9 -277 12 -283 7 -10 385
-13 423 -3 20 6 23 12 20 48 l-3 41 -170 5 -170 5 -9 27 c-6 17 -6 45 0 75 l9
48 114 3 c64 1 121 8 128 14 16 13 17 60 1 76 -8 8 -51 12 -129 12 -129 0
-129 0 -129 66 0 73 2 74 178 74 165 0 182 4 182 45 -1 47 -5 48 -226 49 -171
1 -210 -1 -222 -14z"/>
<path d="M1893 1942 l-33 -3 0 -283 c0 -313 -1 -310 62 -304 l33 3 5 168 5
168 85 -167 c47 -91 90 -168 97 -171 34 -14 66 24 139 167 41 79 79 149 84
154 7 7 10 -45 10 -145 0 -107 4 -159 12 -167 15 -15 61 -15 76 0 14 14 17
545 3 567 -8 12 -78 19 -86 9 -1 -2 -49 -94 -105 -205 -57 -112 -106 -203
-111 -203 -4 0 -54 90 -110 201 -57 110 -110 204 -119 208 -8 3 -30 5 -47 3z"/>
<path d="M1609 1918 c-12 -23 -180 -417 -207 -486 -17 -44 -17 -44 7 -63 52
-42 57 -34 178 246 61 143 112 270 112 282 2 42 -70 59 -90 21z"/>
<path d="M451 1742 c-126 -74 -159 -101 -147 -121 5 -8 186 -112 263 -150 l43
-21 20 20 c36 36 22 60 -64 110 -44 25 -81 50 -83 55 -1 6 33 30 78 54 44 24
83 49 85 56 10 24 -25 75 -51 75 -5 0 -70 -35 -144 -78z"/>
<path d="M2668 1803 c-42 -49 -34 -63 63 -115 43 -24 79 -47 79 -53 0 -5 -38
-30 -83 -55 -90 -49 -104 -73 -67 -110 l20 -20 43 21 c73 37 257 142 262 150
15 24 -28 56 -226 167 -65 37 -71 38 -91 15z"/>
</g>
</svg>
